<svg xmlns="http://www.w3.org/2000/svg" xmlns:xlink="http://www.w3.org/1999/xlink" width="500" zoomAndPan="magnify" viewBox="0 0 375 374.999991" height="500" preserveAspectRatio="xMidYMid meet" version="1.0"><defs><g/><clipPath id="747a681e8f"><path d="M 153 201 L 196 201 L 196 231.570312 L 153 231.570312 Z M 153 201 " clip-rule="nonzero"/></clipPath><clipPath id="608c8b91d9"><path d="M 135 83 L 271.558594 83 L 271.558594 231.570312 L 135 231.570312 Z M 135 83 " clip-rule="nonzero"/></clipPath><clipPath id="ea24dda491"><path d="M 167 49.320312 L 230 49.320312 L 230 101 L 167 101 Z M 167 49.320312 " clip-rule="nonzero"/></clipPath><clipPath id="5deb3fcd40"><path d="M 103.558594 86 L 144 86 L 144 224 L 103.558594 224 Z M 103.558594 86 " clip-rule="nonzero"/></clipPath></defs><path fill="#f4f6fc" d="M 165.675781 184.046875 L 145.554688 171.652344 L 135.234375 181.984375 L 127.128906 222.625 L 165.675781 184.046875 " fill-opacity="1" fill-rule="nonzero"/><g clip-path="url(#747a681e8f)"><path fill="#f4f6fc" d="M 183.289062 201.675781 L 153.519531 231.46875 L 186.019531 231.46875 L 195.671875 221.8125 L 183.289062 201.675781 " fill-opacity="1" fill-rule="nonzero"/></g><g clip-path="url(#608c8b91d9)"><path fill="#f4f6fc" d="M 227.214844 103.589844 C 224.160156 103.589844 221.683594 101.109375 221.683594 98.054688 C 221.683594 94.996094 224.160156 92.515625 227.214844 92.515625 C 230.273438 92.515625 232.746094 94.996094 232.746094 98.054688 C 232.746094 101.109375 230.273438 103.589844 227.214844 103.589844 Z M 170.050781 103.589844 C 166.992188 103.589844 164.515625 101.109375 164.515625 98.054688 C 164.515625 94.996094 166.992188 92.515625 170.050781 92.515625 C 173.105469 92.515625 175.582031 94.996094 175.582031 98.054688 C 175.582031 101.109375 173.105469 103.589844 170.050781 103.589844 Z M 271.148438 227.691406 L 248.574219 86.5 C 248.28125 85.023438 246.984375 83.960938 245.476562 83.960938 L 151.789062 83.960938 C 150.28125 83.960938 148.984375 85.023438 148.691406 86.5 L 135.234375 181.984375 L 145.554688 171.652344 L 214.015625 153.296875 L 195.671875 221.8125 L 186.019531 231.46875 L 268.054688 231.46875 C 270.046875 231.46875 271.539062 229.648438 271.148438 227.691406 " fill-opacity="1" fill-rule="nonzero"/></g><g clip-path="url(#ea24dda491)"><path fill="#f4f6fc" d="M 227.21875 100.464844 C 225.886719 100.464844 224.808594 99.382812 224.808594 98.054688 C 224.808594 84.816406 222.046875 73.5625 216.824219 65.507812 C 212.113281 58.242188 205.648438 54.238281 198.632812 54.238281 C 191.613281 54.238281 185.15625 58.242188 180.441406 65.507812 C 175.21875 73.5625 172.457031 84.816406 172.457031 98.054688 C 172.457031 99.382812 171.378906 100.464844 170.050781 100.464844 C 168.71875 100.464844 167.640625 99.382812 167.640625 98.054688 C 167.640625 83.882812 170.671875 71.71875 176.402344 62.886719 C 182.035156 54.203125 189.929688 49.421875 198.632812 49.421875 C 207.335938 49.421875 215.230469 54.203125 220.863281 62.886719 C 226.59375 71.71875 229.625 83.882812 229.625 98.054688 C 229.625 99.382812 228.542969 100.464844 227.21875 100.464844 " fill-opacity="1" fill-rule="nonzero"/></g><g clip-path="url(#5deb3fcd40)"><path fill="#f4f6fc" d="M 143.105469 86.5 L 103.546875 220.300781 L 115.167969 216.570312 L 120.683594 223.476562 L 143.105469 86.5 " fill-opacity="1" fill-rule="nonzero"/></g><g fill="#f4f6fc" fill-opacity="1"><g transform="translate(48.395235, 294.121869)"><g><path d="M 22.121094 -38.621094 C 22.121094 -39.117188 21.921875 -39.410156 21.332031 -39.410156 L 3.203125 -39.410156 C 2.757812 -39.410156 2.464844 -39.117188 2.464844 -38.621094 L 2.464844 -0.789062 C 2.464844 -0.296875 2.757812 0 3.203125 0 L 21.332031 0 C 21.921875 0 22.121094 -0.296875 22.121094 -0.789062 L 22.121094 -5.714844 C 22.121094 -6.257812 21.921875 -6.503906 21.332031 -6.503906 L 9.015625 -6.503906 L 9.015625 -16.453125 L 18.425781 -16.453125 C 18.917969 -16.453125 19.214844 -16.75 19.214844 -17.292969 L 19.214844 -22.167969 C 19.214844 -22.710938 18.917969 -23.007812 18.425781 -23.007812 L 9.015625 -23.007812 L 9.015625 -32.859375 L 21.332031 -32.859375 C 21.921875 -32.859375 22.121094 -33.203125 22.121094 -33.695312 Z M 22.121094 -38.621094 "/></g></g></g><g fill="#f4f6fc" fill-opacity="1"><g transform="translate(72.973637, 294.121869)"><g><path d="M 16.652344 -39.410156 C 16.109375 -39.410156 15.664062 -38.96875 15.664062 -38.425781 L 15.664062 -8.472656 C 15.664062 -7.144531 14.976562 -6.503906 13.695312 -6.503906 L 11.132812 -6.503906 C 9.851562 -6.503906 9.164062 -7.144531 9.164062 -8.472656 L 9.164062 -38.425781 C 9.164062 -38.96875 8.71875 -39.410156 8.179688 -39.410156 L 3.449219 -39.410156 C 2.90625 -39.410156 2.464844 -38.96875 2.464844 -38.425781 L 2.464844 -7.09375 C 2.464844 -2.464844 4.925781 0 9.558594 0 L 15.074219 0 C 19.707031 0 22.167969 -2.464844 22.167969 -7.09375 L 22.167969 -38.425781 C 22.167969 -38.96875 21.726562 -39.410156 21.183594 -39.410156 Z M 16.652344 -39.410156 "/></g></g></g><g fill="#f4f6fc" fill-opacity="1"><g transform="translate(97.601295, 294.121869)"><g><path d="M 2.464844 -15.46875 C 2.464844 -14.828125 2.808594 -14.484375 3.449219 -14.484375 L 11.230469 -14.484375 C 11.871094 -14.484375 12.21875 -14.828125 12.21875 -15.46875 L 12.21875 -20 C 12.21875 -20.640625 11.871094 -20.988281 11.230469 -20.988281 L 3.449219 -20.988281 C 2.808594 -20.988281 2.464844 -20.640625 2.464844 -20 Z M 2.464844 -15.46875 "/></g></g></g><g fill="#f4f6fc" fill-opacity="1"><g transform="translate(112.279373, 294.121869)"><g><path d="M 22.21875 -32.316406 C 22.21875 -36.949219 19.707031 -39.410156 15.125 -39.410156 L 9.605469 -39.410156 C 4.976562 -39.410156 2.464844 -36.949219 2.464844 -32.316406 L 2.464844 -7.09375 C 2.464844 -2.464844 4.976562 0 9.605469 0 L 15.125 0 C 19.707031 0 22.21875 -2.464844 22.21875 -7.09375 L 22.21875 -12.414062 C 22.21875 -12.90625 21.921875 -13.203125 21.429688 -13.203125 L 16.503906 -13.203125 C 15.960938 -13.203125 15.714844 -12.90625 15.714844 -12.414062 L 15.714844 -8.472656 C 15.714844 -7.144531 15.027344 -6.503906 13.746094 -6.503906 L 11.183594 -6.503906 C 9.902344 -6.503906 9.210938 -7.144531 9.210938 -8.472656 L 9.210938 -30.9375 C 9.210938 -32.21875 9.851562 -32.910156 11.183594 -32.910156 L 13.746094 -32.910156 C 15.027344 -32.910156 15.714844 -32.21875 15.714844 -30.9375 L 15.714844 -26.996094 C 15.714844 -26.503906 15.960938 -26.207031 16.503906 -26.207031 L 21.429688 -26.207031 C 21.921875 -26.207031 22.21875 -26.503906 22.21875 -26.996094 Z M 22.21875 -32.316406 "/></g></g></g><g fill="#f4f6fc" fill-opacity="1"><g transform="translate(136.956287, 294.121869)"><g><path d="M 2.464844 -7.09375 C 2.464844 -2.464844 4.925781 0 9.558594 0 L 15.074219 0 C 19.707031 0 22.167969 -2.464844 22.167969 -7.09375 L 22.167969 -32.316406 C 22.167969 -36.949219 19.707031 -39.410156 15.074219 -39.410156 L 9.558594 -39.410156 C 4.925781 -39.410156 2.464844 -36.949219 2.464844 -32.316406 Z M 10.984375 -6.355469 C 9.703125 -6.355469 9.015625 -6.996094 9.015625 -8.324219 L 9.015625 -31.085938 C 9.015625 -32.367188 9.703125 -33.054688 10.984375 -33.054688 L 13.84375 -33.054688 C 15.125 -33.054688 15.8125 -32.367188 15.8125 -31.085938 L 15.8125 -8.324219 C 15.8125 -6.996094 15.125 -6.355469 13.84375 -6.355469 Z M 10.984375 -6.355469 "/></g></g></g><g fill="#f4f6fc" fill-opacity="1"><g transform="translate(161.583945, 294.121869)"><g><path d="M 23.054688 -39.410156 C 22.464844 -39.410156 22.121094 -39.117188 21.972656 -38.523438 L 16.503906 -13.992188 L 11.035156 -38.523438 C 10.886719 -39.117188 10.542969 -39.410156 9.953125 -39.410156 L 3.449219 -39.410156 C 2.808594 -39.410156 2.464844 -39.066406 2.464844 -38.425781 L 2.464844 -0.984375 C 2.464844 -0.34375 2.808594 0 3.449219 0 L 7.980469 0 C 8.621094 0 8.964844 -0.34375 8.964844 -0.984375 L 8.964844 -23.152344 L 9.3125 -23.152344 L 14.1875 -0.886719 C 14.335938 -0.296875 14.679688 0 15.273438 0 L 17.6875 0 C 18.277344 0 18.621094 -0.296875 18.769531 -0.886719 L 23.648438 -23.152344 L 23.992188 -23.152344 L 23.992188 -0.984375 C 23.992188 -0.34375 24.335938 0 24.976562 0 L 29.558594 0 C 30.199219 0 30.542969 -0.34375 30.542969 -0.984375 L 30.542969 -38.425781 C 30.542969 -39.066406 30.199219 -39.410156 29.558594 -39.410156 Z M 23.054688 -39.410156 "/></g></g></g><g fill="#f4f6fc" fill-opacity="1"><g transform="translate(194.585001, 294.121869)"><g><path d="M 23.054688 -39.410156 C 22.464844 -39.410156 22.121094 -39.117188 21.972656 -38.523438 L 16.503906 -13.992188 L 11.035156 -38.523438 C 10.886719 -39.117188 10.542969 -39.410156 9.953125 -39.410156 L 3.449219 -39.410156 C 2.808594 -39.410156 2.464844 -39.066406 2.464844 -38.425781 L 2.464844 -0.984375 C 2.464844 -0.34375 2.808594 0 3.449219 0 L 7.980469 0 C 8.621094 0 8.964844 -0.34375 8.964844 -0.984375 L 8.964844 -23.152344 L 9.3125 -23.152344 L 14.1875 -0.886719 C 14.335938 -0.296875 14.679688 0 15.273438 0 L 17.6875 0 C 18.277344 0 18.621094 -0.296875 18.769531 -0.886719 L 23.648438 -23.152344 L 23.992188 -23.152344 L 23.992188 -0.984375 C 23.992188 -0.34375 24.335938 0 24.976562 0 L 29.558594 0 C 30.199219 0 30.542969 -0.34375 30.542969 -0.984375 L 30.542969 -38.425781 C 30.542969 -39.066406 30.199219 -39.410156 29.558594 -39.410156 Z M 23.054688 -39.410156 "/></g></g></g><g fill="#f4f6fc" fill-opacity="1"><g transform="translate(227.586056, 294.121869)"><g><path d="M 22.121094 -38.621094 C 22.121094 -39.117188 21.921875 -39.410156 21.332031 -39.410156 L 3.203125 -39.410156 C 2.757812 -39.410156 2.464844 -39.117188 2.464844 -38.621094 L 2.464844 -0.789062 C 2.464844 -0.296875 2.757812 0 3.203125 0 L 21.332031 0 C 21.921875 0 22.121094 -0.296875 22.121094 -0.789062 L 22.121094 -5.714844 C 22.121094 -6.257812 21.921875 -6.503906 21.332031 -6.503906 L 9.015625 -6.503906 L 9.015625 -16.453125 L 18.425781 -16.453125 C 18.917969 -16.453125 19.214844 -16.75 19.214844 -17.292969 L 19.214844 -22.167969 C 19.214844 -22.710938 18.917969 -23.007812 18.425781 -23.007812 L 9.015625 -23.007812 L 9.015625 -32.859375 L 21.332031 -32.859375 C 21.921875 -32.859375 22.121094 -33.203125 22.121094 -33.695312 Z M 22.121094 -38.621094 "/></g></g></g><g fill="#f4f6fc" fill-opacity="1"><g transform="translate(252.164458, 294.121869)"><g><path d="M 22.710938 -32.316406 C 22.710938 -36.949219 20.246094 -39.410156 15.617188 -39.410156 L 3.25 -39.410156 C 2.757812 -39.410156 2.464844 -39.117188 2.464844 -38.621094 L 2.464844 -0.789062 C 2.464844 -0.296875 2.757812 0 3.25 0 L 8.375 0 C 8.867188 0 9.164062 -0.296875 9.164062 -0.789062 L 9.164062 -13.203125 L 12.5625 -13.203125 L 15.863281 -0.691406 C 15.960938 -0.246094 16.207031 0 16.699219 0 L 21.824219 0 C 22.367188 0 22.660156 -0.296875 22.511719 -0.886719 L 19.113281 -13.792969 C 21.480469 -14.828125 22.710938 -16.996094 22.710938 -20.296875 Z M 9.164062 -19.707031 L 9.164062 -32.910156 L 14.039062 -32.910156 C 15.320312 -32.910156 16.011719 -32.21875 16.011719 -30.9375 L 16.011719 -21.675781 C 16.011719 -20.394531 15.320312 -19.707031 14.039062 -19.707031 Z M 9.164062 -19.707031 "/></g></g></g><g fill="#f4f6fc" fill-opacity="1"><g transform="translate(277.333921, 294.121869)"><g><path d="M 22.21875 -32.316406 C 22.21875 -36.949219 19.707031 -39.410156 15.125 -39.410156 L 9.605469 -39.410156 C 4.976562 -39.410156 2.464844 -36.949219 2.464844 -32.316406 L 2.464844 -7.09375 C 2.464844 -2.464844 4.976562 0 9.605469 0 L 15.125 0 C 19.707031 0 22.21875 -2.464844 22.21875 -7.09375 L 22.21875 -12.414062 C 22.21875 -12.90625 21.921875 -13.203125 21.429688 -13.203125 L 16.503906 -13.203125 C 15.960938 -13.203125 15.714844 -12.90625 15.714844 -12.414062 L 15.714844 -8.472656 C 15.714844 -7.144531 15.027344 -6.503906 13.746094 -6.503906 L 11.183594 -6.503906 C 9.902344 -6.503906 9.210938 -7.144531 9.210938 -8.472656 L 9.210938 -30.9375 C 9.210938 -32.21875 9.851562 -32.910156 11.183594 -32.910156 L 13.746094 -32.910156 C 15.027344 -32.910156 15.714844 -32.21875 15.714844 -30.9375 L 15.714844 -26.996094 C 15.714844 -26.503906 15.960938 -26.207031 16.503906 -26.207031 L 21.429688 -26.207031 C 21.921875 -26.207031 22.21875 -26.503906 22.21875 -26.996094 Z M 22.21875 -32.316406 "/></g></g></g><g fill="#f4f6fc" fill-opacity="1"><g transform="translate(302.010848, 294.121869)"><g><path d="M 22.121094 -38.621094 C 22.121094 -39.117188 21.921875 -39.410156 21.332031 -39.410156 L 3.203125 -39.410156 C 2.757812 -39.410156 2.464844 -39.117188 2.464844 -38.621094 L 2.464844 -0.789062 C 2.464844 -0.296875 2.757812 0 3.203125 0 L 21.332031 0 C 21.921875 0 22.121094 -0.296875 22.121094 -0.789062 L 22.121094 -5.714844 C 22.121094 -6.257812 21.921875 -6.503906 21.332031 -6.503906 L 9.015625 -6.503906 L 9.015625 -16.453125 L 18.425781 -16.453125 C 18.917969 -16.453125 19.214844 -16.75 19.214844 -17.292969 L 19.214844 -22.167969 C 19.214844 -22.710938 18.917969 -23.007812 18.425781 -23.007812 L 9.015625 -23.007812 L 9.015625 -32.859375 L 21.332031 -32.859375 C 21.921875 -32.859375 22.121094 -33.203125 22.121094 -33.695312 Z M 22.121094 -38.621094 "/></g></g></g></svg>
